HIERARCHY
ROOT RootJoint
{
    OFFSET   0.000000   0.000000   0.000000
    CHANNELS 6 Xposition Yposition Zposition Xrotation Yrotation Zrotation
    JOINT pelvis_lowerback
    {
        OFFSET   0.000000   0.093605   0.000000
        CHANNELS 3 Xrotation Yrotation Zrotation
        JOINT lowerback_torso
        {
            OFFSET   0.000000   0.100000   0.000000
            CHANNELS 3 Xrotation Yrotation Zrotation
            JOINT torso_head
            {
                OFFSET   0.000000   0.282350   0.000000
                CHANNELS 3 Xrotation Yrotation Zrotation
                End Site
                {
                    OFFSET   0.000000   0.192650   0.000000
                }
            }
            JOINT rTorso_Clavicle
            {
                OFFSET  -0.001000   0.157500   0.000000
                CHANNELS 3 Xrotation Yrotation Zrotation
                JOINT rShoulder
                {
                    OFFSET  -0.117647   0.000000   0.000000
                    CHANNELS 3 Xrotation Yrotation Zrotation
                    JOINT rElbow
                    {
                        OFFSET  -0.245000   0.000000   0.000000
                        CHANNELS 3 Xrotation Yrotation Zrotation
                        JOINT rWrist
                        {
                            OFFSET  -0.240000   0.000000   0.000000
                            CHANNELS 3 Xrotation Yrotation Zrotation
                            End Site
                            {
                                OFFSET  -0.116353  -0.002500   0.000000
                            }
                        }
                    }
                }
            }
            JOINT lTorso_Clavicle
            {
                OFFSET   0.001000   0.157500   0.000000
                CHANNELS 3 Xrotation Yrotation Zrotation
                JOINT lShoulder
                {
                    OFFSET   0.117647   0.000000   0.000000
                    CHANNELS 3 Xrotation Yrotation Zrotation
                    JOINT lElbow
                    {
                        OFFSET   0.245000   0.000000   0.000000
                        CHANNELS 3 Xrotation Yrotation Zrotation
                        JOINT lWrist
                        {
                            OFFSET   0.240000   0.000000   0.000000
                            CHANNELS 3 Xrotation Yrotation Zrotation
                            End Site
                            {
                                OFFSET   0.116353  -0.002500   0.000000
                            }
                        }
                    }
                }
            }
        }
    }
    JOINT rHip
    {
        OFFSET  -0.100000  -0.051395   0.000000
        CHANNELS 3 Xrotation Yrotation Zrotation
        JOINT rKnee
        {
            OFFSET   0.000000  -0.410000   0.000000
            CHANNELS 3 Xrotation Yrotation Zrotation
            JOINT rAnkle
            {
                OFFSET   0.000000  -0.390000   0.000000
                CHANNELS 3 Xrotation Yrotation Zrotation
                JOINT rToeJoint
                {
                    OFFSET   0.000000  -0.050000   0.130000
                    CHANNELS 3 Xrotation Yrotation Zrotation
                    End Site
                    {
                        OFFSET  -0.010000   0.002000   0.060000
                    }
                }
            }
        }
    }
    JOINT lHip
    {
        OFFSET   0.100000  -0.051395   0.000000
        CHANNELS 3 Xrotation Yrotation Zrotation
        JOINT lKnee
        {
            OFFSET   0.000000  -0.410000   0.000000
            CHANNELS 3 Xrotation Yrotation Zrotation
            JOINT lAnkle
            {
                OFFSET   0.000000  -0.390000   0.000000
                CHANNELS 3 Xrotation Yrotation Zrotation
                JOINT lToeJoint
                {
                    OFFSET   0.000000  -0.050000   0.130000
                    CHANNELS 3 Xrotation Yrotation Zrotation
                    End Site
                    {
                        OFFSET   0.010000   0.002000   0.060000
                    }
                }
            }
        }
    }
}
MOTION
Frames: 15
Frame Time:   0.008333
 -2.377622   0.867870   3.887562 -10.853296 -11.076665  -9.712853  18.346182   1.462943  -2.153639  10.638251   0.017950  -2.304677   2.604774  -1.711188  -1.984462   4.679000  -1.969104  -0.954192   9.257049   1.691075  47.971027   0.014872  50.156121  -0.006441   1.447614   1.692829   0.476822   6.440760   6.632984   3.496784  18.233778  -2.916889 -44.661863  -0.067721 -78.416420  -0.049498   1.077332  -9.783030   4.659602 -24.579374  -7.110798 -13.621538  76.116218  -0.020948  -0.096742   7.013982  -2.085538   8.847879   3.143440   0.001576  -0.050064 -22.505091  -6.378414   0.869602  51.932666   0.001477   0.008495  -4.487174  -1.313803   2.769825 -22.177401   0.030932   0.007946
 -2.376397   0.867913   3.877525 -10.891585 -11.225640  -9.471240  18.253027   1.703691  -2.348472  10.669548   0.234078  -2.380161   2.673688  -2.093743  -2.002281   4.374645  -1.247861  -0.732245   8.571902   2.410550  48.233770   0.025999  51.714201  -0.019181   1.385679   1.838872   0.422465   6.701923   6.803101   3.326442  18.917719  -3.135227 -45.515261  -0.053312 -78.444593  -0.039018   1.026513  -9.368661   4.450329 -23.049032  -7.067770 -13.316583  76.825113  -0.016999  -0.075266   6.748883  -1.868402   8.917130   3.809984   0.001621  -0.038839 -23.167398  -6.310774   0.662470  51.558900   0.001628   0.007036  -2.998143  -1.164784   2.797531 -22.631344   0.025339   0.006677
 -2.375381   0.869263   3.867087 -10.810509 -11.366143  -9.197496  18.060401   1.960306  -2.537673  10.661800   0.453956  -2.471058   2.748484  -2.462390  -2.024326   4.110379  -0.600785  -0.566156   7.947136   3.088169  48.507088   0.034547  53.211881  -0.029632   1.320506   2.226534   0.507272   6.985058   7.023796   3.190160  19.595066  -3.343914 -46.339425  -0.040880 -78.515080  -0.030194   0.991302  -9.170186   4.124317 -21.553358  -7.040722 -12.817394  77.207795  -0.013619  -0.058415   6.487032  -1.664552   8.982778   4.391722   0.001721  -0.028864 -23.762316  -6.275635   0.494352  50.737712   0.002532   0.006050  -1.128664  -1.040796   2.737206 -23.312631   0.020869   0.005704
 -2.374446   0.871300   3.856383 -10.652248 -11.492521  -8.908948  17.802049   2.229073  -2.685381  10.610342   0.682986  -2.567070   2.813254  -2.806772  -2.046714   3.879589  -0.025711  -0.473527   7.377189   3.701396  48.742811   0.039833  54.615662  -0.037235   1.257058   2.666636   0.601908   7.274302   7.276679   3.082135  20.252412  -3.530940 -47.113952  -0.031218 -78.591727  -0.023465   0.964572  -9.064426   3.757350 -20.149836  -7.045684 -12.224862  77.519326  -0.010955  -0.045009   6.238769  -1.472685   9.046204   4.914037   0.001709  -0.020646 -24.271061  -6.264665   0.361068  49.582889   0.003957   0.005320   0.870487  -0.951894   2.607749 -23.964952   0.017007   0.004826
 -2.373545   0.873635   3.845489 -10.445118 -11.586328  -8.621262  17.497232   2.498325  -2.778993  10.523503   0.913891  -2.651944   2.867610  -3.127601  -2.065520   3.676492   0.482862  -0.452237   6.856308   4.250084  48.932097   0.042372  55.925227  -0.042187   1.197563   3.093466   0.655011   7.562366   7.551233   3.003237  20.884371  -3.695144 -47.834622  -0.023964 -78.668133  -0.018518   0.941825  -8.998981   3.394876 -18.831688  -7.077285 -11.583254  77.824902  -0.008843  -0.034169   6.006437  -1.292142   9.107563   5.390484   0.001688  -0.014079 -24.706952  -6.257707   0.263199  48.196372   0.005403   0.004408   2.907285  -0.877652   2.429051 -24.532621   0.013707   0.003786
 -2.372632   0.875994   3.834469 -10.214627 -11.664182  -8.342576  17.158652   2.769124  -2.821986  10.408926   1.146665  -2.721310   2.913055  -3.426084  -2.080143   3.495456   0.933719  -0.491102   6.378282   4.740774  49.078086   0.042788  57.145665  -0.044752   1.142692   3.491383   0.656486   7.846382   7.841542   2.951168  21.489718  -3.837203 -48.502545  -0.018628 -78.741959  -0.014956   0.921280  -8.954075   3.056290 -17.592596  -7.118077 -10.923154  78.138926  -0.007172  -0.025403   5.789948  -1.122730   9.166472   5.827334   0.001639  -0.008988 -25.078877  -6.266893   0.192145  46.659933   0.006883   0.003647   4.934022  -0.836621   2.223759 -25.007715   0.010956   0.002961
 -2.371683   0.878179   3.823365  -9.979138 -11.736556  -8.079869  16.796381   3.038271  -2.819019  10.272739   1.379586  -2.771770   2.950865  -3.703734  -2.090607   3.332161   1.335407  -0.575671   5.937830   5.181267  49.188334   0.041642  58.283088  -0.045258   1.092252   3.860194   0.611841   8.124354   8.141740   2.922616  22.067888  -3.959260 -49.120406  -0.014758 -78.812214  -0.012422   0.902161  -8.920655   2.748204 -16.424628  -7.160114 -10.265397  78.460490  -0.005854  -0.018377   5.588409  -0.964080   9.222804   6.228251   0.001550  -0.005152 -25.398210  -6.286008   0.146133  45.037120   0.008268   0.003108   6.917681  -0.818344   2.001042 -25.388817   0.008704   0.002317
 -2.371010   0.881583   3.811206  -9.389100 -11.640133  -7.935175  16.214968   3.257778  -2.695266  10.117701   1.639766  -2.662158   3.034463  -3.923664  -2.184049   3.183069   1.793847  -0.755617   5.786363   5.424699  49.405569   0.045436  59.405806  -0.050438   0.958165   4.170780   0.508894   8.370067   8.172390   2.926227  22.459344  -4.131122 -49.893779  -0.011446 -78.901852  -0.010386   0.796231  -8.627626   2.579908 -15.346515  -7.222470  -9.090940  77.209117  -0.005858  -0.026809   4.639491  -0.897767   9.088737   6.528336   0.002545  -0.001044 -25.963151  -6.447305   0.344072  43.018125   0.010440  -0.000717   9.450878  -1.040638   1.538916 -26.132730   0.005254   0.001228
 -2.370293   0.885143   3.798573  -8.728287 -11.532380  -7.782321  15.639131   3.453547  -2.554885   9.941010   1.860534  -2.550372   3.110427  -4.121548  -2.271416   3.079807   2.191924  -0.986395   5.678828   5.636580  49.601358   0.048102  60.458484  -0.054244   0.826774   4.467234   0.507561   8.579126   8.175745   2.949889  22.799053  -4.327419 -50.630927  -0.008667 -79.021374  -0.008796   0.694569  -8.464104   2.402618 -14.459023  -7.236744  -7.854074  75.589259  -0.005586  -0.038233   3.720936  -0.835324   8.963422   6.674719   0.002644   0.000858 -26.450607  -6.611710   0.571571  40.674361   0.013165  -0.004498  12.087028  -1.324022   1.023166 -26.776742   0.002384   0.000396
 -2.369508   0.888355   3.785761  -8.084047 -11.434430  -7.649388  15.085962   3.620253  -2.382020   9.768302   2.047235  -2.436600   3.182629  -4.304727  -2.350604   3.002244   2.532100  -1.260458   5.597547   5.813800  49.758340   0.048598  61.440849  -0.055459   0.701234   4.743591   0.526746   8.774269   8.183442   2.990910  23.113108  -4.519502 -51.321765  -0.006529 -79.150397  -0.007548   0.600867  -8.405854   2.212567 -13.724049  -7.230658  -6.632416  73.948298  -0.004081  -0.047258   2.855256  -0.774124   8.848420   6.778980   0.002466   0.001903 -26.834609  -6.784698   0.820056  38.194183   0.016042  -0.007039  14.695685  -1.646651   0.505750 -27.314388   0.000320   0.000007
 -2.368657   0.890996   3.772906  -7.498843 -11.362390  -7.543598  14.565915   3.760111  -2.186534   9.609122   2.206791  -2.316789   3.251634  -4.475246  -2.421062   2.942331   2.823590  -1.558585   5.535034   5.960034  49.881644   0.047142  62.354866  -0.054202   0.581703   4.990055   0.529571   8.961058   8.200332   3.045599  23.408699  -4.698488 -51.964321  -0.004975 -79.278019  -0.006555   0.512936  -8.397165   2.025936 -13.097031  -7.212774  -5.459182  72.385905  -0.001612  -0.052725   2.044490  -0.714152   8.743343   6.863009   0.002175   0.002467 -27.145486  -6.968798   1.081978  35.707259   0.018812  -0.007860  17.201796  -1.990282   0.017105 -27.406900  -0.000000   0.000004
 -2.367743   0.892985   3.760069  -6.993073 -11.327036  -7.461526  14.084619   3.875782  -1.981828   9.467775   2.343378  -2.191849   3.317559  -4.634283  -2.483769   2.895922   3.076261  -1.862148   5.486777   6.081646  49.981326   0.044239  63.204139  -0.050986   0.467820   5.203364   0.512005   9.139415   8.223850   3.109763  23.686822  -4.863065 -52.559615  -0.003865 -79.399455  -0.005725   0.429385  -8.405339   1.853307 -12.545550  -7.185758  -4.351653  70.924584   0.001345  -0.054974   1.286824  -0.655811   8.647409   6.935027   0.001846   0.002736 -27.410864  -7.154376   1.348907  33.302144   0.021113  -0.007152  19.575088  -2.337297  -0.434595 -26.903628   0.001241  -0.000277
 -2.366770   0.894277   3.747298  -6.574754 -11.341401  -7.401247  13.639461   3.972262  -1.775126   9.344421   2.461528  -2.063872   3.380736  -4.782671  -2.540201   2.861153   3.297356  -2.159440   5.450446   6.184271  50.065784   0.040283  63.993148  -0.046292   0.359094   5.385873   0.483168   9.309616   8.252341   3.179753  23.948581  -5.014023 -53.110998  -0.003073 -79.513273  -0.005003   0.349575  -8.416746   1.696102 -12.049695  -7.150288  -3.315126  69.565796   0.004446  -0.054658   0.579332  -0.599451   8.559781   6.998388   0.001512   0.002810 -27.639702  -7.337796   1.622368  31.015540   0.022870  -0.005177  21.820867  -2.679740  -0.850079 -25.956201   0.002980  -0.001345
 -2.365552   0.894756   3.734451  -6.213497 -11.133694  -7.164709  13.455737   3.932760  -1.771159   9.102109   2.531990  -1.935729   3.506650  -4.758483  -2.395574   2.746476   3.268316  -2.187818   5.694414   6.358278  50.105734   0.033634  64.149268  -0.038335   0.292339   6.083734   0.248848   9.353960   8.095227   3.033558  23.874678  -5.301792 -53.446052  -0.002851 -79.342619  -0.003771   0.332186  -8.341474   1.717631 -11.406206  -7.256905  -2.688859  67.290672   0.007937  -0.057916  -1.177254  -0.972201   8.219264   7.451632   0.002348   0.005259 -28.843447  -7.191408   1.597491  32.408593   0.016557   0.000787  19.372252  -2.602737  -1.441612 -23.633414   0.007813   0.012565
 -2.364203   0.894668   3.721564  -5.931714 -11.015581  -6.807847  13.361378   3.862954  -1.912865   8.922165   2.526781  -1.882037   3.628523  -4.720536  -2.256775   2.704874   3.213575  -2.108684   5.983707   6.501665  50.199287   0.027790  64.239375  -0.031344   0.230926   6.500340   0.120546   9.311769   7.849468   2.818993  23.715024  -5.624854 -53.768895  -0.004081 -79.173510  -0.004298   0.314115  -8.200778   1.824028 -10.864334  -7.252372  -2.319293  64.823714   0.011274  -0.058766  -2.843566  -1.320351   7.887621   7.769667   0.002537   0.006071 -29.984635  -6.996869   1.534027  34.287114   0.009856   0.006284  17.081474  -2.505652  -1.992378 -21.755738   0.009797   0.019603
